<svg xmlns="http://www.w3.org/2000/svg" width="1920" height="1920" viewBox="0 0 1920 1920" version="1.1"><path d="M 932 83.018 C 788.218 92.362, 658.040 148.720, 543.500 251.210 C 524.374 268.324, 489.351 304.170, 473 323.367 C 382.183 429.991, 321.179 554.919, 293.480 691 C 281.216 751.251, 274.829 809.167, 267.510 926.500 C 259.710 1051.545, 253.759 1109.623, 241.433 1181 C 230.798 1242.584, 205.420 1356.922, 192.558 1401.199 C 181.650 1438.751, 175.082 1454.891, 152.749 1499.018 C 125.081 1553.687, 113.965 1586.810, 114.017 1614.426 C 114.066 1639.939, 125.327 1660.033, 145.130 1669.945 C 155.465 1675.118, 162.040 1676.384, 175 1675.694 C 188.318 1674.985, 197.929 1672.301, 226.025 1661.446 C 265.136 1646.334, 296.332 1636.455, 337.817 1626.046 C 381.522 1615.079, 403.662 1611.668, 431.500 1611.609 C 460.487 1611.547, 476.943 1614.970, 498.500 1625.543 C 512.600 1632.458, 523.736 1640.904, 537.508 1655.130 C 551.186 1669.257, 561.750 1683.266, 580.018 1711.502 C 599.826 1742.118, 606.580 1751.888, 616.374 1764.097 C 637.387 1790.292, 660.790 1806.786, 686.794 1813.729 C 695.210 1815.976, 698.626 1816.332, 712.500 1816.410 C 724.515 1816.478, 730.617 1816.044, 737 1814.670 C 750.031 1811.866, 767 1805.858, 785.607 1797.460 C 856.266 1765.572, 882.842 1754.677, 920.662 1742.091 C 971.805 1725.071, 1006.083 1719.179, 1038.672 1721.805 C 1063.968 1723.845, 1085.224 1729.450, 1112 1741.145 C 1134.582 1751.007, 1154.385 1762.509, 1199.500 1791.968 C 1228.633 1810.991, 1237.236 1816.181, 1251.500 1823.340 C 1279.133 1837.209, 1301.686 1842.852, 1324.917 1841.709 C 1354.435 1840.256, 1377.951 1829.246, 1401.027 1806.075 C 1414.616 1792.430, 1422.066 1782.790, 1443.960 1750.525 C 1464.160 1720.756, 1472.882 1709.306, 1484.967 1696.688 C 1510.379 1670.156, 1539.453 1655.999, 1582 1649.442 C 1598.195 1646.946, 1641.631 1646.461, 1675.277 1648.399 C 1710.684 1650.440, 1740.288 1650.471, 1753.500 1648.484 C 1793.570 1642.454, 1817.723 1624.626, 1825.926 1595.023 C 1834.990 1562.317, 1823.326 1515.444, 1781.502 1416.500 C 1721.520 1274.601, 1687.950 1160.146, 1673.565 1048.500 C 1668.862 1012.004, 1665.392 971.233, 1658.498 871.500 C 1652.674 787.229, 1646.449 733.218, 1636.909 684.168 C 1609.666 544.091, 1547.293 418.797, 1451.890 312.500 C 1437.363 296.314, 1403.519 262.914, 1387.239 248.697 C 1277.727 153.064, 1152.628 97.284, 1019 84.503 C 999.293 82.618, 950.875 81.792, 932 83.018"  fill-rule="evenodd"/></svg>